<svg xmlns="http://www.w3.org/2000/svg" xmlns:xlink="http://www.w3.org/1999/xlink" version="1.1" width="1000" height="1000" viewBox="0 0 1000 1000" xml:space="preserve">
<desc>Created with Fabric.js 3.5.0</desc>
<defs>
</defs>
<rect x="0" y="0" width="100%" height="100%" fill="#ffffff"/>
<g transform="matrix(20.5677 0 0 20.5677 500.0007 500.0005)" id="352677">
<path style="stroke: none; stroke-width: 1; stroke-dasharray: none; stroke-linecap: butt; stroke-dashoffset: 0; stroke-linejoin: miter; stroke-miterlimit: 4; is-custom-font: none; font-file-url: none; fill: rgb(102,77,229); fill-rule: nonzero; opacity: 1;" vector-effect="non-scaling-stroke" transform=" translate(-24, -24.475)" d="M 1.9 40 v -4.7 q 0 -1.75 0.9 -3.175 Q 3.7 30.7 5.3 30 q 3.65 -1.6 6.575 -2.3 Q 14.8 27 17.9 27 q 3.1 0 6 0.7 t 6.55 2.3 q 1.6 0.7 2.525 2.125 q 0.925 1.425 0.925 3.175 V 40 Z m 35 0 v -4.7 q 0 -3.15 -1.6 -5.175 t -4.2 -3.275 q 3.45 0.4 6.5 1.175 t 4.95 1.775 q 1.65 0.95 2.6 2.35 q 0.95 1.4 0.95 3.15 V 40 Z m -19 -16.05 q -3.3 0 -5.4 -2.1 q -2.1 -2.1 -2.1 -5.4 q 0 -3.3 2.1 -5.4 q 2.1 -2.1 5.4 -2.1 q 3.3 0 5.4 2.1 q 2.1 2.1 2.1 5.4 q 0 3.3 -2.1 5.4 q -2.1 2.1 -5.4 2.1 Z m 18 -7.5 q 0 3.3 -2.1 5.4 q -2.1 2.1 -5.4 2.1 q -0.55 0 -1.225 -0.075 T 25.95 23.6 q 1.2 -1.25 1.825 -3.075 q 0.625 -1.825 0.625 -4.075 t -0.625 -3.975 Q 27.15 10.75 25.95 9.3 q 0.55 -0.15 1.225 -0.25 t 1.225 -0.1 q 3.3 0 5.4 2.1 q 2.1 2.1 2.1 5.4 Z" stroke-linecap="round"/>
</g>
</svg>